<svg xmlns="http://www.w3.org/2000/svg" viewBox="0 0 207.03 148.45">
  <g id="Layer_2" data-name="Layer 2">
    <g id="Layer_1-2" data-name="Layer 1" fill='black'>
      <path
        d="M79,115.69H69.57l-.18.49c.77.39,1.53.83,2.33,1.19,19.84,9,40.53,14.68,62.4,15.69,4.48.21,7.65-2.3,8.31-6.66.12-.85.17-1.71.22-2.56.22-3.46-.34-4.06-3.83-3.91-13.34.57-26.25-2-39.06-5.34-6.12-1.6-12.37-2.71-18.43-4.51a50.58,50.58,0,0,1-17.1-9.2,6.37,6.37,0,0,1-1.83-2.22,7.92,7.92,0,0,1,1.49.51c16.15,9.6,33.87,12.57,52.32,12.45q9.53-.06,19-.1a14.81,14.81,0,0,1,1.76.2l.08.79-19.54,2.25,0,.63,22.71,1.86a80.14,80.14,0,0,1-3-7.58,28.11,28.11,0,0,1-1.13-7.27c0-2.12,1-4.11,3.46-4.51a4.13,4.13,0,0,1,4.92,3.22,79.55,79.55,0,0,1,1.44,10.81,26.83,26.83,0,0,1-.5,4.72l12.09-1.57.23.52a23.79,23.79,0,0,1-2.92,1.32,71.21,71.21,0,0,1-7.69,2c-1.91.34-2.85,1.17-3,3.08-.18,2.3-.46,4.58-.76,7.46,2.56-1.67,4.89-3,7-4.6,2.8-2.12,5.35-4.57,8.17-6.64,3.76-2.75,4.5-6.66,4.57-10.87a6.92,6.92,0,0,0-.73-2.66c-1.69-3.93-3.64-7.77-5.08-11.78a18.4,18.4,0,0,1-.77-6.55,4,4,0,0,1,3.46-4.2,4.26,4.26,0,0,1,4.61,2.56C167,89.28,166.68,94.17,166,99c-.61,4.22-1.42,8.41-1.78,12.75,4.83-5.49,10.16-10.67,9.74-18.8a9.52,9.52,0,0,0-1-2.87c-1.77-4.26-3.77-8.44-5.29-12.79-1-2.89-.95-5.93,1.22-8.5-1.59-3.27-3.07-6.54-3-10.44,3.22,1.13,4.91,5.28,4.14,9.36,4.54.79,5.73,1.91,6.77,6.59,1.2,5.43.1,10.73-1,16a15.1,15.1,0,0,0-.26,5.48c1-2.21,2.08-4.41,3.05-6.64.62-1.41,1.06-2.9,1.66-4.32,2-4.77,2.73-9.51,1.16-14.69A41,41,0,0,1,180.19,60a12.75,12.75,0,0,1,1.1-5c.7-1.79,2.3-3.25,4.18-2.62,1.48.48,3.41,2,3.66,3.3a33.12,33.12,0,0,1-.06,8.61,16.3,16.3,0,0,1-1.28,4.15q-3.93,10.44-7.91,20.85c-.11.3-.17.62-.46,1.68,2.09-1.66,3.62-2.92,5.2-4.11,3.87-2.92,7.65-6,11.73-8.63a11,11,0,0,1,6.12-1.43,6.17,6.17,0,0,1,4,2.5,3.24,3.24,0,0,1-1.14,4.54,27.44,27.44,0,0,1-7.55,3.51,46.31,46.31,0,0,1-10.17,1.31c-4.79.12-7.78,3-10.25,6.41s-4.25,7.19-6.75,11.56c1.9-1.23,3.26-2,4.5-2.92,4.21-3.12,8.37-6.34,13.59-7.58a10.78,10.78,0,0,1,5-.37c1.43.39,3.28,1.65,3.64,2.9s-.46,3.77-1.52,4.35a27.11,27.11,0,0,1-8.35,2.82,28.55,28.55,0,0,1-8.46.13c-5-.66-8.83,1.53-11.83,4.89-7.78,8.73-16.48,16.19-26.89,21.59-.11.06-.12.3-.24.61a105.37,105.37,0,0,0,44.46-9.72c-4.94,3.67-10.51,6-16.26,7.84A103.59,103.59,0,0,1,135.65,136a21.59,21.59,0,0,0-5.24.87c-4.14,1.05-8.25,2.24-12.39,3.33a6.74,6.74,0,0,1-1.62,0l-.14-.63L128,136.4l0-.6c-3.6-.45-7.21-.84-10.79-1.35a161.9,161.9,0,0,1-52.11-16.67c-4.74-2.46-9.66-3.17-14.7-4a56.9,56.9,0,0,1-18.49-6C22,102.38,18.37,94.26,20.75,83.26a5.34,5.34,0,0,0-.47-2.58c-1.15-3.47-2.78-6.85-3.45-10.4-1-5.36.72-10.18,4.53-14.14,4.35-4.52,9.82-6.93,16-7.93-2,.93-4,1.81-5.9,2.8-13.35,6.85-16.09,17-8,29.65A25.9,25.9,0,0,0,26,84.05c-1-4.18-2.73-8.21-1.07-12.77.6,1.36,1.28,2.7,1.77,4.11,4.79,13.83,13.69,24.07,26,32,7,4.53,14.51,5.65,22.27,6.83.93.14,1.84.37,2.76.59A8.43,8.43,0,0,1,79,115.69ZM51.22,110.4C40.23,103.05,29.91,95,22,84.16c-.62,7.74,1.61,14.18,8.1,18.73C36.42,107.33,43.7,109.12,51.22,110.4ZM171.6,83.82c-.85-4.21-1.71-8.41-2.62-12.92C167.34,75.91,169.78,79.8,171.6,83.82Zm-31.34,29.26c-.79-4-1.59-8-2.5-12.63C136.41,105.56,138.27,109.4,140.26,113.08Zm42.32-8.32c4.49-.09,9.12.4,13.34-3.17Zm10.14-18c4.3-.42,8.72-.5,12.41-4.41ZM158.2,85c-1.58,4.67.48,8.27,2.32,11.92C159.77,93,159,89.18,158.2,85Zm33.45-.1.29.8,11.64-4-.31-.89ZM142,114.18l.73-.16q-1.29-6.18-2.59-12.36l-1,.21ZM184,69l.28,0L185,55.83l-.93,0Zm10.43,31.6-.2-.85L183,102.39l.22.89ZM172.85,83.35l.84-.26q-1.14-5.45-2.29-10.88l-.9.19Q171.67,77.88,172.85,83.35ZM162.07,97.41l.83-.18-2.32-11-.93.2Q160.87,91.95,162.07,97.41Zm21-42.82c-2.31,3.78-1.82,7.32-1.07,11.57C182.34,62,182.66,58.59,183,54.59Zm3.8,11.52.69.3c.38-2.93.75-5.87,1.12-8.8l-.53-.07Z"
      />
      <path
        d="M100.94,67.54C97.22,68.68,93.35,70.41,89.3,71c-10.21,1.49-19-2.11-26.77-8.63a69.88,69.88,0,0,1-16.4-20.57,18.15,18.15,0,0,1-.72-2.05,46.07,46.07,0,0,0,5.92,3,35.44,35.44,0,0,0,5.87,1l.16-.7c-1.18-.53-2.4-1-3.54-1.59-8.11-4.37-11.89-11.7-13-20.39-.59-4.63-.08-9.39,0-14.09a6.24,6.24,0,0,1,.31-1.51C42.47-.12,46.88-1.7,51.31,2a48.92,48.92,0,0,1,5.56,6A30.3,30.3,0,0,1,64.4,29.31a59.69,59.69,0,0,0,.41,6.1h.73v-14l.6-.2A8.74,8.74,0,0,1,67,22.67C70.74,34.18,78,42.81,88.24,49.16a49.32,49.32,0,0,1,7.33,5.17c2.68,2.44,5,5.31,7.27,7.84a16.26,16.26,0,0,0-.38-2.19,8.22,8.22,0,0,1-.6-3l1.87,4.47.41,0L102.84,54c2,3.61,1.89,7,1.29,10.57,7.57,1.39,15,.68,22.37-.71l.16.91a15.12,15.12,0,0,1-3.15.83c-5.72.28-11.45.44-17.17.66-.86,0-1.71.17-2.57.26.34.89.64,1.8,1,2.67.15.35.46.63.21,1.3l-2.81-4-1.26,5-.3.06C100.75,70,100.87,68.51,100.94,67.54ZM94.8,56.86c-2.56-2.72-4.74-5.9-8.69-7a35.7,35.7,0,0,0,2.61,2.61c1.7,1.83,3.29,3.77,4.92,5.67L83.56,47.78c-1,2.79.6,4.6,1.29,6.59-1-2.19-2-4.37-2.93-6.57-.29-.68-.26-1.62-.73-2.1-2.11-2.16-4.35-4.2-6.57-6.26-.13-.12-.46,0-.7,0-.28,5.24,2.11,13.15,4.63,15.39l.23-1.76c1.81,5.13,5.94,5.78,10,7.57L86.43,57c2.57,2,4.53,5,8.45,5.52l-1.33-4.47c1.12,1.71,2.24,3.43,3.37,5.14l.44-.21L95.7,58.07c.64,1.17,1.63,2.27,1.84,3.51.41,2.47,1.92,2.49,3.65,2.43l.68-.65-6.93-8.61-.56.45ZM90.88,67.32l3.94-3c-2.58-1.7-5.09-1.16-7.58.2l2.15-1.86c-3.5-2.55-7.14-1.85-10.8-.65l4.89-2.55c-1.45-.17-2.46-.56-3.31-.34-2.13.56-4.2,1.39-6.29,2.11l5.76-3.26c-3-1.94-5.8-4.27-9.92-3.35-3.7.83-7.48,1.3-11.19,1.92,3.81,5.79,7.38,7.06,13.71,4.85a4.17,4.17,0,0,1,1-.1L67,63.94l0,.71A44.93,44.93,0,0,0,72.71,64a56.33,56.33,0,0,0,5.93-2.07L71.52,65.4l1.32.25L71,66l0,.36,3.51.28-2.42.41c3.64,1.76,6.84,3,10.39,1.32-.28,1.07-.13,1.9,1.23,1.54s2.67-.89,4-1.35L87.15,70c4.7-.49,9.18-1.18,13.29-4.71C96.58,64.61,93.7,65.84,90.88,67.32Zm-43.56-36L57.65,40l.56-.6c-1.47-2.35-3-4.65-4.36-7.08a64.4,64.4,0,0,1-3.75-7.87c-.94-2.47-2.07-5-1.72-7.81,2.87,7.74,5.41,15.6,11.81,21.46Q58.58,26.67,57,15.27a17.46,17.46,0,0,1,1.09,3c.69,4.3,1.26,8.62,2,13.61,1.25-8.83,1.73-16.8-4.62-23.47l1.62,6.89-.88-1-.31,1.37c.09-4.23-2-7.57-4-11A5.77,5.77,0,0,0,45.74,1.5c-2.64.36-3.17,2.66-3.52,4.77-1.37,8.2-1,16.15,4,23.3l-2.33-2.15c2.06,7.68,9.25,14.06,16.34,14.45-1.13-.82-2.39-1.44-3.56-2.19C53.06,37.4,49.39,35.21,47.32,31.27Zm4.25,17.18c2.82,3,3.75,7.35,8.69,7.17C64.67,55.46,70.35,54,71,52.52Zm25.54,6c-4.14-6.9-2.49-14.88-7-21.46-.26,3.5-.58,6.53-.68,9.57C69.18,48.78,69.26,50.05,77.11,54.49ZM61.79,17.88l-.61,0c0,3.58-.07,7.15,0,10.72.09,3.82.15,7.65.59,11.43.18,1.5,1.34,2.88,2.05,4.31l.62-.31Zm6.6,11.25c-3.49,5.35-3.11,16.84.82,19.33C67.45,42,70.71,35.58,68.39,29.13ZM50.08,44.42c5.12,6.3,12.79,5.21,19.55,6.76C63.82,46.86,56,48.41,50.08,44.42Zm15.64,3.65.54-.44c-1.09-.94-2.15-1.92-3.29-2.82-.48-.38-1.16-.89-1.67-.82-2.5.35-5,.87-8.14,1.45Z"
      />
      <path
        d="M44.59,52.5c-1,1.61-1.7,2.72-2.37,3.86-3.63,6.2-2.82,11.54,3,15.79,3.52,2.59,7.55,4.47,11.36,6.68l.63-.85c-1.27-1.36-2.49-2.76-3.8-4.09s-2.68-2.56-4-3.84l.45-.68c2.23,1.13,4.52,2.16,6.67,3.43,8.44,5,17,9.43,26.91,11a162,162,0,0,0,46.06.94c1-.13,1.94-.21,2.91-.3l.14.73c-3,.7-6,1.62-9.08,2.06-24,3.49-47.52,2.32-70.15-7a37.37,37.37,0,0,1-11.58-7.81C35.67,66.52,37,57.63,44.59,52.5Z"
      />
      <path
        d="M178,56.39c-.42-.78-.87-1.53-1.25-2.33A99,99,0,0,0,159.13,28a14.39,14.39,0,0,0-4.57-3.06c-4.6-2.06-9.44-3.63-13.9-5.95a25.53,25.53,0,0,1-6.77-5.7,4.67,4.67,0,0,1-.29-6.18,4.71,4.71,0,0,1,6.22-1.49A51.24,51.24,0,0,1,149,12c1.95,1.72,3.3,4.13,4.89,6.25l15.67,20.88.74-.22c-.75-5-1.79-9.91-2.15-14.9a96.09,96.09,0,0,1,.23-13.78,11.7,11.7,0,0,1,1.91-4.7,4.91,4.91,0,0,1,5.4-2.6,4.43,4.43,0,0,1,3.87,4.51,30.82,30.82,0,0,1-1.39,9.74c-1.67,4.65-4.21,9-6.24,13.5a9.4,9.4,0,0,0-.91,4.11c.2,4.3,1,8.43,3.39,12.2a97.81,97.81,0,0,1,4.58,9ZM135.82,8.81l-.6.76c4.71,4.87,10.5,8.18,16.19,11.64l.54-.76Zm41.72-3.72c-.64,3.79-1,6.91-1.72,10s-1.6,5.82-2.41,8.73C176.26,18.09,180.3,12.62,177.54,5.09ZM171,24.14c3-4.56,5.33-15.28,4.06-18.52C173.62,12.23,172.31,18.19,171,24.14Zm-23.94-3.71-13.23-9.94C136.36,16.62,141.94,18.27,147.07,20.43ZM139.56,6.9l11,9.57C148,12.05,144.5,8.65,139.56,6.9ZM174.2,5c-3.09,4-3.22,8.78-3.56,13.5Q172.43,11.77,174.2,5Zm-29.88,8.09c-2.41-2.46-4.74-5.21-8.6-5.54ZM168.42,19,169,19l1.77-11.25-.73-.1Q169.21,13.32,168.42,19Z"
      />
      <path
        d="M92.57,94.49c3.6-.42,7.21-.76,10.79-1.29,14.79-2.16,29.33-5.37,42.8-12.08a54.34,54.34,0,0,0,11.4-7.75c5-4.37,6.25-10,3.78-16.33-.2-.52-.34-1.07-.61-1.94,4.64,4.22,5.06,11.59,1.22,17.41-3.2,4.86-7.75,8.22-12.84,10.8a109.06,109.06,0,0,1-55,12c-.5,0-1-.14-1.5-.2Z"
      />
      <path
        d="M146.18,66.87c1.54-4.33,3.58-8.43.71-12.66-2.11-3.09-5.24-4.66-8.62-5.91l2.38,6.78-.81.36a4.21,4.21,0,0,1-.83-.8c-4.36-7-11.44-9.57-19-10.23-9.09-.79-18.27-.51-27.42-.68A4.88,4.88,0,0,1,90,43.16a33.12,33.12,0,0,1,4.17-1.24c14.91-2.35,29.71-2.22,44.08,3a27,27,0,0,1,8.88,5.41A10.82,10.82,0,0,1,146.18,66.87Z"
      />
      <path
        d="M15,93.32c.43,1,.9,1.89,1.29,2.86a97.34,97.34,0,0,0,15.91,26.53,14.34,14.34,0,0,0,4.4,3.29c4.26,2.18,8.76,3.92,12.9,6.29a26.19,26.19,0,0,1,6.57,5.59c2.13,2.43,2.08,5.16.55,7.06s-4.42,2.47-7.26.86a45.7,45.7,0,0,1-6.15-4.56,12.21,12.21,0,0,1-2.37-2.69c-6.81-10.24-13.73-20.41-20.3-30.8-2.36-3.73-3.9-8-5.77-12a13.21,13.21,0,0,1-.6-2.09ZM54.49,143.1l.61-.75c-4.55-5.27-10.36-8.95-16.07-12.77l-.49.62ZM43.88,130.91l12.77,10.66C54.12,135.3,48.89,133.24,43.88,130.91ZM39.25,134c2.76,4.38,5.9,8.45,10.21,10.49Zm6.92,4.31c2.23,2.71,4.61,5.35,8.38,6.1Z"
      />
      <path
        d="M34.35,46A20.78,20.78,0,0,1,31,45.13c-6.67-2.86-13.41-5.59-19.91-8.8-2.93-1.45-5.46-3.78-8-5.94A11.38,11.38,0,0,1,.56,26.6a4.85,4.85,0,0,1,.86-5.71,4.36,4.36,0,0,1,5.44-.95,25.66,25.66,0,0,1,7.07,5.3A52.81,52.81,0,0,1,21.28,36c2.16,4.37,5.72,6.34,9.9,7.84,1.14.41,2.28.84,3.42,1.27ZM4.65,20.6,17.93,33.36C14.46,28.1,11.82,22,4.65,20.6ZM16.73,35.8l.68-.61c-4-4.49-7.8-9.27-13-12.53l-.61.63Zm-6-3.7-8.3-8.7C4,27.43,7.16,30,10.71,32.1ZM9.24,34.29l.53-.55L2.53,27.22l-.45.49Z"
      />
      <path
        d="M177.2,71.3c-2.1-4.16-3.69-8.48-6.23-12.14-5.64-8.09-14.24-11.87-23.42-14.22-6.19-1.59-12.58-2.46-18.88-3.65a8.53,8.53,0,0,1-3-1,11.66,11.66,0,0,1,2-.45c12.91-.47,25.32,1.41,36.42,8.48,7.43,4.73,12.24,11.36,13.14,20.4C177.27,69.55,177.2,70.39,177.2,71.3Z"
      />
      <path
        d="M152.46,88.2c-9.91,9.66-39.85,14.64-48.61,10A156.89,156.89,0,0,0,152.46,88.2Z"
      />
      <path
        d="M61.17,90.15C51.6,89.36,43.31,86,37,78.62c-4.53-5.32-6.18-12.39-3.92-17.35C34.78,78.48,48.16,84.07,61.17,90.15Z"
      />
      <path
        d="M153.48,58.36a8.14,8.14,0,0,1,.42,9.46,20.37,20.37,0,0,1-5.27,5.82c-7.06,5-15.17,6.91-23.74,7a5.38,5.38,0,0,1-3.12-1c1-.29,2.08-.56,3.11-.86,5.56-1.65,11.16-3.2,16.67-5a25.83,25.83,0,0,0,5.63-3C151.62,67.89,153.92,63.87,153.48,58.36Z"
      />
      <path
        d="M138.37,141.63c-9.83,6-35.93,4.86-42.26-1C110.15,142.85,124.24,142.73,138.37,141.63Z"
      />
      <path d="M82.81,135.53c-14.11-2.86-25.48-10.68-36-20l.5-.9L83,134.9Z" />
      <path
        d="M9.05,75.19C9.33,82.08,10.36,89,7.36,95.52a3.32,3.32,0,0,1-2.2,1.65c-.46.06-1.4-1.12-1.62-1.89-2.14-7.19-.37-13.62,4-19.48a2.1,2.1,0,0,1,.58-.49A4.25,4.25,0,0,1,9.05,75.19Z"
      />
      <path
        d="M62.23,136.68c10,7.14,21.82,7.57,33.23,10.26C87.92,151.69,64.18,144.44,62.23,136.68Z"
      />
      <path
        d="M131.72,105.75c-6.33,2.74-28.95,2.21-34-.69C100.78,103.37,127.53,103.82,131.72,105.75Z"
      />
      <path
        d="M80,115.86c9.7,1.69,18.69,3.28,27.82,6.66C102.6,124.9,84.1,120.53,80,115.86Z"
      />
      <path
        d="M172.87,109.33c1.47,7.41-9.84,18-17.62,16.33C162.28,121.09,169,116.77,172.87,109.33Z"
      />
      <path
        d="M146.53,36.77c-3.21-1.66-6.49-3.22-9.6-5.05a7,7,0,0,1-2.37-2.95,3,3,0,0,1,.08-2.48c.2-.35,1.61-.34,2.24,0a23.93,23.93,0,0,1,10.19,9.66Z"
      />
      <path
        d="M38.82,44.08c-4-2.14-8.31-3.85-10.16-8.37-.41-1,0-2.31.07-3.47,1.05.32,2.31.37,3.1,1C35.29,36.05,37.31,39.87,38.82,44.08Z"
      />
      <path
        d="M93.56,101.34a38.15,38.15,0,0,1-18.63-4C78.68,95.3,90,97.66,93.56,101.34Z"
      />
      <path
        d="M53.33,100.64c3.22-.57,10.34,2.76,12,5.62C61.79,107.6,54.68,104.27,53.33,100.64Z"
      />
      <path d="M139.76,126.65c-1.25,4.23-9,6.19-13.14,3Z" />
      <path
        d="M39.71,119.92c3.34-.75,7.56,1.16,8.72,3.8C45.6,125.23,40.93,123.28,39.71,119.92Z"
      />
      <path d="M118.3,121.62l4.21,2.92-4.4,1a.39.39,0,0,1-.26,0l-3.13-1.74Z" />
      <path
        d="M23,62.38l2.66-2.72c.46.81,1.41,1.73,1.26,2.41-.22,1-1.2,1.91-1.87,2.86Z"
      />
      <path
        d="M58.57,94.31c-.68.28-1.63,1-2,.76a18.74,18.74,0,0,1-2.78-2.58c.64-.4,1.46-1.27,1.88-1.1a16.85,16.85,0,0,1,3.09,2Z"
      />
    </g>
  </g>
</svg>
